<svg xmlns="http://www.w3.org/2000/svg" xmlns:xlink="http://www.w3.org/1999/xlink" width="500" zoomAndPan="magnify" viewBox="0 0 375 374.999991" height="500" preserveAspectRatio="xMidYMid meet" version="1.0"><defs><g/><clipPath id="c255468cfe"><path d="M 105 107 L 284 107 L 284 287 L 105 287 Z M 105 107 " clip-rule="nonzero"/></clipPath><clipPath id="95e1e07f6c"><path d="M 161.765625 84.597656 L 307.082031 164.324219 L 227.355469 309.640625 L 82.039062 229.914062 Z M 161.765625 84.597656 " clip-rule="nonzero"/></clipPath><clipPath id="6e7db6f466"><path d="M 161.765625 84.597656 L 307.082031 164.324219 L 227.355469 309.640625 L 82.039062 229.914062 Z M 161.765625 84.597656 " clip-rule="nonzero"/></clipPath></defs><g fill="#e8cda8" fill-opacity="1"><g transform="translate(125.213322, 235.301471)"><g><path d="M 56.890625 -16.203125 C 55.984375 -18.921875 54.765625 -21.578125 53.234375 -24.171875 C 51.710938 -26.773438 49.921875 -29.101562 47.859375 -31.15625 C 45.796875 -33.21875 43.484375 -34.929688 40.921875 -36.296875 C 38.367188 -37.660156 35.570312 -38.503906 32.53125 -38.828125 C 31.375 -38.910156 30.175781 -38.890625 28.9375 -38.765625 C 27.695312 -38.640625 26.5 -38.367188 25.34375 -37.953125 C 24.195312 -37.546875 23.148438 -36.972656 22.203125 -36.234375 C 21.253906 -35.492188 20.570312 -34.503906 20.15625 -33.265625 L 14.09375 -15.21875 C 12.445312 -10.507812 11.644531 -6.976562 11.6875 -4.625 C 11.726562 -2.28125 12.570312 -1.109375 14.21875 -1.109375 L 14.21875 0 L 3.703125 0 L 3.703125 -1.109375 C 4.203125 -1.109375 4.78125 -1.332031 5.4375 -1.78125 C 6.101562 -2.238281 6.828125 -3.023438 7.609375 -4.140625 C 8.390625 -5.253906 9.234375 -6.738281 10.140625 -8.59375 C 11.046875 -10.445312 11.992188 -12.773438 12.984375 -15.578125 L 35 -80.015625 L 32.65625 -86.8125 L 42.046875 -86.8125 L 65.671875 -17.9375 C 66.492188 -15.625 67.296875 -13.4375 68.078125 -11.375 C 68.859375 -9.3125 69.597656 -7.515625 70.296875 -5.984375 C 71.003906 -4.460938 71.644531 -3.269531 72.21875 -2.40625 C 72.800781 -1.539062 73.335938 -1.109375 73.828125 -1.109375 L 73.828125 0 L 59.359375 0 L 59.359375 -1.109375 C 59.773438 -1.109375 59.921875 -2.257812 59.796875 -4.5625 C 59.671875 -6.875 59.03125 -9.765625 57.875 -13.234375 Z M 21.515625 -36.984375 C 22.921875 -38.296875 24.65625 -39.132812 26.71875 -39.5 C 28.78125 -39.875 30.71875 -39.984375 32.53125 -39.828125 C 37.226562 -39.410156 41.347656 -37.84375 44.890625 -35.125 C 48.429688 -32.40625 51.398438 -29.148438 53.796875 -25.359375 L 35.625 -78.28125 Z M 21.515625 -36.984375 "/></g></g><g transform="translate(202.754643, 235.301471)"><g><path d="M 14.71875 -89.296875 L 14.71875 -26.59375 L 28.4375 -38.703125 L 44.28125 -52.6875 C 45.925781 -54.164062 47.015625 -55.503906 47.546875 -56.703125 C 48.085938 -57.898438 47.410156 -58.5 45.515625 -58.5 L 45.515625 -59.609375 L 57.140625 -59.609375 L 57.140625 -58.5 C 55.898438 -58.5 54.554688 -58.164062 53.109375 -57.5 C 51.671875 -56.84375 50.351562 -56.125 49.15625 -55.34375 C 47.957031 -54.5625 46.925781 -53.796875 46.0625 -53.046875 C 45.195312 -52.304688 44.679688 -51.851562 44.515625 -51.6875 L 32.65625 -41.1875 L 46.75 -17.3125 L 51.453125 -9.40625 C 52.929688 -6.84375 54.25 -4.816406 55.40625 -3.328125 C 56.5625 -1.847656 57.46875 -1.109375 58.125 -1.109375 L 58.125 0 L 43.53125 0 L 43.53125 -1.109375 C 44.101562 -1.109375 43.957031 -2.363281 43.09375 -4.875 C 42.226562 -7.394531 40.644531 -10.632812 38.34375 -14.59375 L 26.09375 -35.375 L 14.71875 -25.359375 L 14.71875 -10.640625 C 14.71875 -8.578125 14.816406 -6.925781 15.015625 -5.6875 C 15.222656 -4.445312 15.492188 -3.476562 15.828125 -2.78125 C 16.160156 -2.082031 16.488281 -1.628906 16.8125 -1.421875 C 17.144531 -1.210938 17.394531 -1.109375 17.5625 -1.109375 L 17.5625 0 L 3.34375 0 L 3.34375 -1.109375 C 3.507812 -1.109375 3.753906 -1.210938 4.078125 -1.421875 C 4.410156 -1.628906 4.71875 -2.082031 5 -2.78125 C 5.289062 -3.476562 5.5625 -4.445312 5.8125 -5.6875 C 6.0625 -6.925781 6.1875 -8.578125 6.1875 -10.640625 L 6.1875 -78.65625 C 5.851562 -80.800781 5.394531 -82.203125 4.8125 -82.859375 C 4.238281 -83.515625 3.832031 -83.84375 3.59375 -83.84375 L 3.09375 -84.96875 Z M 14.71875 -89.296875 "/></g></g></g><g clip-path="url(#c255468cfe)"><g clip-path="url(#95e1e07f6c)"><g clip-path="url(#6e7db6f466)"><path fill="#e8cda8" d="M 249.589844 265.789062 L 185.039062 284.597656 L 126.089844 252.257812 L 107.273438 187.707031 L 139.617188 128.757812 L 204.167969 109.945312 L 263.117188 142.285156 L 281.929688 206.839844 Z M 264.65625 141.050781 L 204.386719 107.980469 L 138.382812 127.21875 L 105.3125 187.492188 L 124.550781 253.492188 L 184.824219 286.5625 L 250.824219 267.328125 L 283.894531 207.050781 L 264.65625 141.050781 " fill-opacity="1" fill-rule="nonzero"/></g></g></g></svg>