<svg width="301" height="301" viewBox="0 0 301 301" fill="none" xmlns="http://www.w3.org/2000/svg">
<path d="M133.805 180.131C132.597 176.506 130.972 172.964 128.93 169.506C126.899 166.037 124.514 162.933 121.764 160.194C119.014 157.444 115.93 155.162 112.514 153.339C109.107 151.522 105.378 150.397 101.326 149.964C99.7844 149.855 98.1855 149.881 96.5344 150.048C94.8782 150.214 93.2844 150.579 91.7427 151.131C90.2115 151.673 88.8157 152.438 87.5552 153.423C86.2896 154.412 85.3782 155.73 84.8261 157.381L76.7427 181.444C74.5448 187.725 73.4771 192.433 73.5344 195.569C73.5865 198.694 74.7115 200.256 76.9094 200.256V201.735H62.8886V200.256C63.5552 200.256 64.3261 199.959 65.2011 199.36C66.0865 198.751 67.0552 197.704 68.0969 196.214C69.1386 194.73 70.2636 192.751 71.4719 190.277C72.6802 187.808 73.9407 184.704 75.2636 180.964L104.618 95.0478L101.493 85.9853H114.014L145.514 177.819C146.607 180.902 147.68 183.819 148.722 186.569C149.764 189.319 150.748 191.714 151.68 193.756C152.623 195.787 153.477 197.376 154.243 198.527C155.019 199.683 155.732 200.256 156.389 200.256V201.735H137.097V200.256C137.649 200.256 137.847 198.725 137.68 195.652C137.514 192.569 136.659 188.714 135.118 184.089L133.805 180.131ZM86.6386 152.423C88.5136 150.673 90.8261 149.558 93.5761 149.069C96.3261 148.569 98.9094 148.423 101.326 148.631C107.586 149.188 113.081 151.277 117.805 154.902C122.524 158.527 126.482 162.871 129.68 167.923L105.451 97.3603L86.6386 152.423Z" fill="#E8CDA8"/>
<path d="M180.965 82.6728V166.277L199.256 150.131L220.381 131.485C222.574 129.517 224.027 127.73 224.735 126.131C225.454 124.537 224.553 123.735 222.027 123.735V122.256H237.527V123.735C235.871 123.735 234.079 124.183 232.152 125.069C230.235 125.944 228.475 126.902 226.881 127.944C225.282 128.985 223.907 130.006 222.756 131.006C221.6 131.996 220.912 132.6 220.694 132.819L204.881 146.819L223.673 178.652L229.944 189.194C231.912 192.61 233.673 195.313 235.215 197.298C236.756 199.272 237.965 200.256 238.84 200.256V201.735H219.381V200.256C220.142 200.256 219.949 198.584 218.798 195.235C217.642 191.876 215.532 187.558 212.465 182.277L196.131 154.569L180.965 167.923V187.548C180.965 190.298 181.095 192.501 181.36 194.152C181.636 195.808 181.996 197.1 182.444 198.027C182.886 198.959 183.324 199.563 183.756 199.839C184.199 200.121 184.532 200.256 184.756 200.256V201.735H165.798V200.256C166.017 200.256 166.345 200.121 166.777 199.839C167.22 199.563 167.631 198.959 168.006 198.027C168.392 197.1 168.756 195.808 169.09 194.152C169.423 192.501 169.59 190.298 169.59 187.548V96.8603C169.142 94.0009 168.532 92.1311 167.756 91.2561C166.991 90.3811 166.449 89.9436 166.131 89.9436L165.465 88.4436L180.965 82.6728Z" fill="#E8CDA8"/>
<mask id="mask0_1_24" style="mask-type:luminance" maskUnits="userSpaceOnUse" x="0" y="0" width="301" height="301">
<path d="M106.688 0.796875L300.443 107.099L194.141 300.854L0.385437 194.552L106.688 0.796875Z" fill="white"/>
</mask>
<g mask="url(#mask0_1_24)">
<mask id="mask1_1_24" style="mask-type:luminance" maskUnits="userSpaceOnUse" x="0" y="0" width="301" height="301">
<path d="M106.688 0.796875L300.443 107.099L194.141 300.854L0.385437 194.552L106.688 0.796875Z" fill="white"/>
</mask>
<g mask="url(#mask1_1_24)">
<path d="M223.786 242.385L137.719 267.464L59.1198 224.344L34.0313 138.276L77.1563 59.6771L163.224 34.5938L241.823 77.7136L266.906 163.786L223.786 242.385ZM243.875 76.0677L163.516 31.974L75.5104 57.625L31.4167 137.99L57.0677 225.99L137.432 270.083L225.432 244.438L269.526 164.068L243.875 76.0677Z" fill="#E8CDA8"/>
</g>
</g>
</svg>
